<?xml version="1.0" encoding="UTF-8" standalone="no"?>
<!DOCTYPE svg PUBLIC "-//W3C//DTD SVG 1.1//EN" "http://www.w3.org/Graphics/SVG/1.1/DTD/svg11.dtd">
<svg xmlns="http://www.w3.org/2000/svg" version="1.1" viewBox="0.00 0.00 1266.00 922.00">
<g stroke-width="2.00" fill="none" stroke-linecap="butt">
<path stroke="#1b186d" stroke-opacity="0.580" vector-effect="non-scaling-stroke" d="
  M 1202.75 88.42
  L 1202.74 361.78"
/>
<path stroke="#8886b8" vector-effect="non-scaling-stroke" d="
  M 1202.74 361.78
  Q 1119.78 342.44 1034.74 335.31
  Q 1021.75 334.22 1008.74 333.48
  Q 999.86 332.97 990.99 332.46
  Q 981.01 331.88 971.01 331.71
  C 968.80 331.67 966.37 331.27 964.00 331.23
  Q 932.38 330.67 900.75 331.28
  C 899.48 331.31 898.11 331.62 896.75 331.65
  C 813.38 333.69 729.73 345.60 648.93 365.80
  A 0.65 0.64 82.6 0 1 648.13 365.18
  L 646.96 37.20"
/>
<path stroke="#1b186d" stroke-opacity="0.580" vector-effect="non-scaling-stroke" d="
  M 62.58 833.54
  Q 236.91 874.51 414.74 850.18
  Q 481.26 841.08 546.87 825.65"
/>
<path stroke="#1b186d" stroke-opacity="0.580" vector-effect="non-scaling-stroke" d="
  M 648.12 803.97
  Q 665.23 800.18 682.54 796.48
  Q 756.04 780.76 830.73 772.30
  C 882.81 766.41 934.21 765.62 987.49 768.54
  Q 1098.57 774.61 1202.21 813.82
  A 0.39 0.39 0.0 0 0 1202.74 813.45
  L 1202.74 476.00"
/>
<path stroke="#cfcecf" stroke-opacity="0.580" vector-effect="non-scaling-stroke" d="
  M 1202.74 361.78
  L 1202.74 476.00"
/>
<path stroke="#8886b8" vector-effect="non-scaling-stroke" d="
  M 1202.74 476.00
  C 1167.07 464.77 1133.87 458.93 1094.11 453.19
  Q 1051.31 447.01 1017.49 444.71
  Q 830.11 431.95 649.26 481.35
  Q 648.11 481.66 648.11 482.85
  L 648.12 803.97"
/>
<path stroke="#cfcecf" stroke-opacity="0.580" vector-effect="non-scaling-stroke" d="
  M 648.12 803.97
  Q 597.51 815.81 546.87 825.65"
/>
<path stroke="#8886b8" vector-effect="non-scaling-stroke" d="
  M 546.87 825.65
  L 546.87 497.73
  A 0.69 0.69 0.0 0 0 546.03 497.06
  L 535.49 499.39"
/>
<path stroke="#ececf0" vector-effect="non-scaling-stroke" d="
  M 535.49 499.39
  Q 535.39 499.21 535.34 499.07
  Q 535.17 498.68 535.59 498.74
  Q 535.74 498.76 535.85 498.83
  Q 535.90 498.87 535.90 498.80
  Q 535.86 444.81 535.89 390.81
  Q 535.89 390.48 535.56 390.55
  Q 535.43 390.57 535.30 390.60
  Q 535.08 390.64 535.08 390.42
  Q 535.07 390.20 535.20 390.01"
/>
<path stroke="#8886b8" vector-effect="non-scaling-stroke" d="
  M 535.20 390.01
  L 544.12 387.99
  Q 544.64 387.88 544.64 387.35
  L 544.87 57.62"
/>
<path stroke="#8482b8" vector-effect="non-scaling-stroke" d="
  M 535.49 499.39
  Q 410.63 526.39 282.99 531.77
  Q 272.56 532.21 262.13 532.40
  C 261.21 532.42 260.46 532.75 259.61 532.75
  Q 242.39 532.74 225.17 532.76
  C 223.52 532.76 221.55 532.42 219.50 532.39
  C 161.74 531.62 104.69 523.75 46.24 510.51
  Q 26.04 505.94 0.26 496.38"
/>
<path stroke="#8482b8" vector-effect="non-scaling-stroke" d="
  M 535.20 390.01
  Q 443.01 409.66 348.99 416.61
  Q 326.50 418.28 303.99 419.47
  Q 294.36 419.98 284.75 420.63
  C 277.37 421.13 265.93 421.04 251.50 421.53
  C 240.23 421.92 226.38 421.34 217.83 421.17
  Q 193.75 420.68 171.75 418.76
  C 114.07 413.74 56.36 403.24 0.26 386.92"
/>
<path stroke="#8886b8" vector-effect="non-scaling-stroke" d="
  M 920.01 208.50
  Q 919.06 208.50 919.04 207.54
  Q 918.54 185.44 926.14 163.93
  Q 930.07 152.81 934.17 141.73
  Q 939.05 128.55 939.84 122.63
  C 943.10 98.37 929.32 74.21 913.33 57.18
  Q 912.92 56.74 912.52 57.19
  C 896.76 74.45 882.37 98.70 886.02 123.13
  Q 886.78 128.18 890.04 137.04
  Q 895.09 150.73 899.98 164.49
  Q 907.47 185.58 906.72 208.01
  Q 906.71 208.50 906.22 208.50
  L 897.03 208.50
  Q 896.56 208.50 896.56 208.03
  C 896.26 186.90 890.05 160.57 869.22 150.27
  C 862.81 147.10 856.22 147.03 849.59 150.09
  C 836.23 156.25 829.75 170.32 832.45 184.44
  C 834.91 197.30 844.19 203.09 856.27 206.69
  Q 857.17 206.96 856.86 206.08
  C 854.22 198.71 855.35 188.09 863.98 185.23
  C 879.18 180.20 886.32 196.28 886.47 208.25
  Q 886.48 208.49 886.24 208.49
  L 870.49 208.50
  A 0.26 0.25 90.0 0 0 870.24 208.76
  L 870.21 225.06
  A 0.59 0.59 0.0 0 0 870.81 225.65
  L 903.22 225.42
  Q 903.78 225.42 903.75 225.97
  C 903.34 236.15 898.05 242.07 889.61 246.93
  Q 889.12 247.21 889.35 247.72
  C 891.80 253.22 896.75 257.55 903.07 257.60
  Q 903.55 257.60 903.60 258.08
  Q 904.89 269.19 912.44 277.37
  A 0.68 0.67 -44.4 0 0 913.42 277.37
  Q 920.99 269.35 922.22 258.31
  A 0.83 0.81 -87.9 0 1 922.99 257.58
  C 929.43 257.28 934.00 253.19 936.59 247.69
  Q 936.83 247.20 936.36 246.92
  C 927.86 241.94 922.56 236.45 922.21 225.98
  A 0.53 0.53 0.0 0 1 922.75 225.43
  L 955.00 225.64
  A 0.63 0.62 90.0 0 0 955.63 225.00
  L 955.48 209.24
  A 0.74 0.74 0.0 0 0 954.74 208.50
  L 940.02 208.50
  Q 939.52 208.50 939.52 208.00
  C 939.47 196.58 946.07 181.89 960.04 184.69
  C 970.18 186.71 972.00 197.97 969.02 206.21
  A 0.31 0.31 0.0 0 0 969.37 206.62
  C 999.12 200.81 1002.33 164.20 977.81 150.81
  C 966.22 144.48 954.45 149.25 945.85 158.10
  C 934.66 169.62 930.07 188.36 929.57 204.25
  Q 929.51 206.43 929.40 207.48
  Q 929.29 208.50 928.27 208.50
  L 920.01 208.50"
/>
<path stroke="#8886b8" vector-effect="non-scaling-stroke" d="
  M 233.49 295.50
  L 218.50 295.50
  Q 218.00 295.50 218.00 296.00
  L 218.00 311.99
  Q 218.00 312.48 218.49 312.48
  L 250.74 312.51
  Q 251.20 312.51 251.21 312.97
  C 251.28 322.24 245.55 329.57 237.38 333.77
  Q 236.61 334.17 236.99 334.96
  C 239.49 340.20 244.14 344.24 250.36 344.50
  A 0.92 0.92 0.0 0 1 251.24 345.31
  Q 252.58 356.52 260.32 364.65
  A 0.28 0.27 -44.3 0 0 260.71 364.65
  C 266.59 358.60 268.10 352.91 270.05 344.96
  Q 270.16 344.50 270.63 344.42
  C 271.34 344.31 271.96 344.58 272.62 344.46
  C 277.84 343.49 281.85 339.33 284.17 334.77
  A 0.71 0.70 26.7 0 0 283.85 333.82
  C 275.59 329.79 270.03 322.43 269.77 313.01
  Q 269.76 312.50 270.26 312.50
  L 302.47 312.49
  Q 302.93 312.49 302.93 312.03
  L 303.17 295.96
  Q 303.18 295.50 302.71 295.50
  L 287.52 295.50
  Q 287.05 295.50 287.05 295.03
  C 287.08 286.96 290.52 276.19 298.32 272.59
  C 303.50 270.19 310.65 271.03 314.52 275.52
  C 318.51 280.17 318.69 287.76 316.51 293.26
  Q 316.29 293.81 316.87 293.68
  C 334.94 289.64 345.07 275.61 340.63 257.28
  Q 337.57 244.63 325.12 237.73
  C 312.75 230.87 299.60 237.35 291.40 247.42
  C 281.00 260.18 276.95 278.39 277.07 294.93
  A 0.56 0.56 0.0 0 1 276.51 295.50
  L 267.01 295.50
  Q 266.52 295.50 266.54 295.01
  C 266.77 288.79 266.79 282.20 267.58 276.38
  C 270.13 257.47 277.79 239.49 284.30 221.67
  C 294.85 192.82 280.03 165.17 260.94 144.14
  Q 260.61 143.78 260.28 144.13
  C 243.84 161.07 230.23 186.19 233.67 210.35
  Q 234.31 214.86 236.71 221.46
  Q 241.59 234.88 246.55 248.27
  Q 254.92 270.87 254.43 295.03
  Q 254.43 295.50 253.96 295.50
  L 244.53 295.49
  A 0.52 0.52 0.0 0 1 244.01 294.97
  C 244.14 274.44 237.21 246.19 216.17 236.99
  C 197.82 228.96 180.51 245.54 179.55 262.91
  C 178.60 280.19 188.51 289.70 204.42 293.79
  A 0.19 0.19 0.0 0 0 204.65 293.54
  Q 201.32 285.23 205.44 277.34
  C 208.73 271.03 217.70 269.80 223.18 272.75
  C 230.47 276.66 233.96 286.79 234.02 294.97
  Q 234.02 295.50 233.49 295.50"
/>
<path stroke="#8886b8" vector-effect="non-scaling-stroke" d="
  M 911.22 649.23
  L 901.75 649.23
  Q 901.25 649.23 901.25 648.72
  C 901.23 632.05 897.40 614.07 886.58 600.92
  C 881.06 594.22 871.16 587.50 862.02 588.56
  C 846.34 590.39 836.40 605.00 836.66 620.07
  C 836.91 634.67 847.20 644.35 861.25 647.36
  Q 861.81 647.48 861.63 646.94
  C 858.69 638.08 860.57 627.17 871.40 625.22
  C 884.74 622.82 891.16 637.66 891.16 648.79
  Q 891.16 649.22 890.73 649.22
  L 875.77 649.24
  A 0.49 0.49 0.0 0 0 875.28 649.73
  L 875.26 665.62
  A 0.61 0.61 0.0 0 0 875.87 666.23
  L 907.96 666.19
  A 0.66 0.66 0.0 0 1 908.62 666.91
  Q 907.35 681.27 894.49 687.47
  Q 893.72 687.84 894.12 688.59
  C 896.87 693.85 901.44 698.32 907.81 698.29
  Q 908.31 698.29 908.37 698.79
  Q 909.75 710.05 917.41 718.31
  A 0.39 0.39 0.0 0 0 917.98 718.32
  C 923.70 712.38 925.49 706.62 927.20 698.77
  Q 927.31 698.26 927.83 698.26
  C 934.05 698.21 938.84 693.78 941.40 688.43
  Q 941.62 687.96 941.18 687.70
  C 932.65 682.54 927.48 677.35 926.98 666.76
  Q 926.95 666.19 927.51 666.20
  L 959.76 666.24
  Q 960.25 666.24 960.25 665.74
  L 960.25 649.74
  Q 960.25 649.23 959.74 649.23
  L 944.77 649.24
  Q 944.34 649.24 944.34 648.80
  C 944.33 636.04 952.52 620.14 967.71 626.31
  C 975.54 629.50 976.22 640.01 973.82 646.92
  Q 973.63 647.44 974.18 647.33
  C 991.96 643.80 1002.33 629.05 997.86 610.98
  C 993.83 594.66 976.43 582.94 960.21 591.69
  C 940.39 602.38 934.33 628.10 934.16 648.78
  Q 934.16 649.22 933.72 649.22
  L 924.50 649.23
  Q 923.94 649.24 923.93 648.68
  Q 923.35 627.81 929.31 609.53
  Q 932.86 598.63 939.60 580.65
  Q 943.86 569.31 944.63 563.51
  C 947.98 538.61 934.16 515.80 918.22 497.97
  Q 917.75 497.44 917.28 497.96
  Q 910.69 505.08 904.95 513.43
  C 893.52 530.06 885.86 554.06 893.20 573.50
  Q 898.79 588.32 904.16 603.21
  C 909.63 618.43 911.61 632.80 911.67 648.78
  Q 911.68 649.23 911.22 649.23"
/>
<path stroke="#8886b8" vector-effect="non-scaling-stroke" d="
  M 272.27 755.00
  L 303.75 755.00
  Q 304.25 755.00 304.25 754.50
  L 304.25 738.50
  Q 304.25 738.00 303.75 738.00
  L 288.79 738.00
  Q 288.41 738.00 288.41 737.62
  C 288.24 727.15 293.63 713.52 305.75 713.80
  C 318.05 714.08 321.39 725.76 317.78 735.61
  Q 317.60 736.09 318.10 735.99
  C 337.97 732.21 347.68 714.39 340.61 695.79
  C 336.15 684.08 321.82 673.60 308.97 678.21
  C 285.55 686.62 278.45 715.15 278.16 737.56
  Q 278.15 738.00 277.71 738.00
  L 268.25 738.00
  Q 267.67 738.00 267.71 737.42
  Q 268.00 732.12 268.25 727.01
  C 269.32 704.81 277.83 685.26 285.28 664.73
  Q 288.09 656.98 288.70 652.03
  C 291.67 628.04 278.39 603.41 262.07 586.62
  Q 261.71 586.25 261.35 586.62
  C 245.28 603.43 231.73 627.90 234.84 652.01
  Q 235.53 657.39 239.31 667.70
  C 245.71 685.19 252.65 702.94 254.95 720.30
  Q 255.55 724.87 255.69 737.52
  Q 255.70 738.00 255.22 738.00
  L 245.78 738.00
  Q 245.30 738.00 245.30 737.52
  C 245.17 716.91 238.99 690.31 218.75 680.10
  C 211.99 676.69 205.14 676.12 198.42 679.39
  Q 181.89 687.44 180.81 706.25
  C 179.90 722.36 190.38 732.85 205.41 736.07
  A 0.35 0.35 0.0 0 0 205.81 735.59
  C 201.44 725.26 206.58 712.51 219.57 713.86
  C 230.50 715.01 235.22 728.03 235.24 737.49
  Q 235.24 738.00 234.74 738.00
  L 219.82 738.00
  Q 219.26 738.00 219.26 738.56
  L 219.24 754.49
  A 0.51 0.50 90.0 0 0 219.74 755.00
  L 251.98 755.00
  A 0.64 0.63 -87.5 0 1 252.61 755.70
  Q 251.32 770.06 238.42 776.16
  A 0.73 0.72 64.5 0 0 238.08 777.14
  C 240.68 782.50 245.45 786.83 251.69 787.06
  Q 252.17 787.08 252.27 787.54
  C 254.14 795.38 255.72 801.06 261.49 806.99
  Q 261.75 807.26 262.01 806.99
  Q 269.80 798.84 271.06 787.56
  Q 271.09 787.25 271.40 787.21
  C 278.31 786.46 282.22 783.10 285.39 777.30
  A 0.88 0.87 -63.4 0 0 284.99 776.09
  Q 272.55 770.25 270.97 756.46
  Q 270.80 755.00 272.27 755.00"
/>
</g>
<path fill="#1f1c7f" d="
  M 1202.75 88.42
  L 1202.74 361.78
  Q 1119.78 342.44 1034.74 335.31
  Q 1021.75 334.22 1008.74 333.48
  Q 999.86 332.97 990.99 332.46
  Q 981.01 331.88 971.01 331.71
  C 968.80 331.67 966.37 331.27 964.00 331.23
  Q 932.38 330.67 900.75 331.28
  C 899.48 331.31 898.11 331.62 896.75 331.65
  C 813.38 333.69 729.73 345.60 648.93 365.80
  A 0.65 0.64 82.6 0 1 648.13 365.18
  L 646.96 37.20
  C 707.80 25.94 768.87 14.43 830.25 6.70
  C 954.65 -8.96 1082.84 5.37 1202.24 42.99
  A 0.76 0.75 -81.0 0 1 1202.76 43.71
  L 1202.75 88.42
  Z
  M 920.01 208.50
  Q 919.06 208.50 919.04 207.54
  Q 918.54 185.44 926.14 163.93
  Q 930.07 152.81 934.17 141.73
  Q 939.05 128.55 939.84 122.63
  C 943.10 98.37 929.32 74.21 913.33 57.18
  Q 912.92 56.74 912.52 57.19
  C 896.76 74.45 882.37 98.70 886.02 123.13
  Q 886.78 128.18 890.04 137.04
  Q 895.09 150.73 899.98 164.49
  Q 907.47 185.58 906.72 208.01
  Q 906.71 208.50 906.22 208.50
  L 897.03 208.50
  Q 896.56 208.50 896.56 208.03
  C 896.26 186.90 890.05 160.57 869.22 150.27
  C 862.81 147.10 856.22 147.03 849.59 150.09
  C 836.23 156.25 829.75 170.32 832.45 184.44
  C 834.91 197.30 844.19 203.09 856.27 206.69
  Q 857.17 206.96 856.86 206.08
  C 854.22 198.71 855.35 188.09 863.98 185.23
  C 879.18 180.20 886.32 196.28 886.47 208.25
  Q 886.48 208.49 886.24 208.49
  L 870.49 208.50
  A 0.26 0.25 90.0 0 0 870.24 208.76
  L 870.21 225.06
  A 0.59 0.59 0.0 0 0 870.81 225.65
  L 903.22 225.42
  Q 903.78 225.42 903.75 225.97
  C 903.34 236.15 898.05 242.07 889.61 246.93
  Q 889.12 247.21 889.35 247.72
  C 891.80 253.22 896.75 257.55 903.07 257.60
  Q 903.55 257.60 903.60 258.08
  Q 904.89 269.19 912.44 277.37
  A 0.68 0.67 -44.4 0 0 913.42 277.37
  Q 920.99 269.35 922.22 258.31
  A 0.83 0.81 -87.9 0 1 922.99 257.58
  C 929.43 257.28 934.00 253.19 936.59 247.69
  Q 936.83 247.20 936.36 246.92
  C 927.86 241.94 922.56 236.45 922.21 225.98
  A 0.53 0.53 0.0 0 1 922.75 225.43
  L 955.00 225.64
  A 0.63 0.62 90.0 0 0 955.63 225.00
  L 955.48 209.24
  A 0.74 0.74 0.0 0 0 954.74 208.50
  L 940.02 208.50
  Q 939.52 208.50 939.52 208.00
  C 939.47 196.58 946.07 181.89 960.04 184.69
  C 970.18 186.71 972.00 197.97 969.02 206.21
  A 0.31 0.31 0.0 0 0 969.37 206.62
  C 999.12 200.81 1002.33 164.20 977.81 150.81
  C 966.22 144.48 954.45 149.25 945.85 158.10
  C 934.66 169.62 930.07 188.36 929.57 204.25
  Q 929.51 206.43 929.40 207.48
  Q 929.29 208.50 928.27 208.50
  L 920.01 208.50
  Z"
/>
<path fill="#f0eff0" d="
  M 646.96 37.20
  L 648.13 365.18
  A 0.65 0.64 82.6 0 0 648.93 365.80
  C 729.73 345.60 813.38 333.69 896.75 331.65
  C 898.11 331.62 899.48 331.31 900.75 331.28
  Q 932.38 330.67 964.00 331.23
  C 966.37 331.27 968.80 331.67 971.01 331.71
  Q 981.01 331.88 990.99 332.46
  Q 999.86 332.97 1008.74 333.48
  Q 1021.75 334.22 1034.74 335.31
  Q 1119.78 342.44 1202.74 361.78
  L 1202.74 476.00
  C 1167.07 464.77 1133.87 458.93 1094.11 453.19
  Q 1051.31 447.01 1017.49 444.71
  Q 830.11 431.95 649.26 481.35
  Q 648.11 481.66 648.11 482.85
  L 648.12 803.97
  Q 597.51 815.81 546.87 825.65
  L 546.87 497.73
  A 0.69 0.69 0.0 0 0 546.03 497.06
  L 535.49 499.39
  Q 535.39 499.21 535.34 499.07
  Q 535.17 498.68 535.59 498.74
  Q 535.74 498.76 535.85 498.83
  Q 535.90 498.87 535.90 498.80
  Q 535.86 444.81 535.89 390.81
  Q 535.89 390.48 535.56 390.55
  Q 535.43 390.57 535.30 390.60
  Q 535.08 390.64 535.08 390.42
  Q 535.07 390.20 535.20 390.01
  L 544.12 387.99
  Q 544.64 387.88 544.64 387.35
  L 544.87 57.62
  Q 595.61 46.64 646.96 37.20
  Z"
/>
<path fill="#f0eff0" d="
  M 929.40 207.48
  Q 929.51 206.43 929.57 204.25
  C 930.07 188.36 934.66 169.62 945.85 158.10
  C 954.45 149.25 966.22 144.48 977.81 150.81
  C 1002.33 164.20 999.12 200.81 969.37 206.62
  A 0.31 0.31 0.0 0 1 969.02 206.21
  C 972.00 197.97 970.18 186.71 960.04 184.69
  C 946.07 181.89 939.47 196.58 939.52 208.00
  Q 939.52 208.50 940.02 208.50
  L 954.74 208.50
  A 0.74 0.74 0.0 0 1 955.48 209.24
  L 955.63 225.00
  A 0.63 0.62 90.0 0 1 955.00 225.64
  L 922.75 225.43
  A 0.53 0.53 0.0 0 0 922.21 225.98
  C 922.56 236.45 927.86 241.94 936.36 246.92
  Q 936.83 247.20 936.59 247.69
  C 934.00 253.19 929.43 257.28 922.99 257.58
  A 0.83 0.81 -87.9 0 0 922.22 258.31
  Q 920.99 269.35 913.42 277.37
  A 0.68 0.67 -44.4 0 1 912.44 277.37
  Q 904.89 269.19 903.60 258.08
  Q 903.55 257.60 903.07 257.60
  C 896.75 257.55 891.80 253.22 889.35 247.72
  Q 889.12 247.21 889.61 246.93
  C 898.05 242.07 903.34 236.15 903.75 225.97
  Q 903.78 225.42 903.22 225.42
  L 870.81 225.65
  A 0.59 0.59 0.0 0 1 870.21 225.06
  L 870.24 208.76
  A 0.26 0.25 -90.0 0 1 870.49 208.50
  L 886.24 208.49
  Q 886.48 208.49 886.47 208.25
  C 886.32 196.28 879.18 180.20 863.98 185.23
  C 855.35 188.09 854.22 198.71 856.86 206.08
  Q 857.17 206.96 856.27 206.69
  C 844.19 203.09 834.91 197.30 832.45 184.44
  C 829.75 170.32 836.23 156.25 849.59 150.09
  C 856.22 147.03 862.81 147.10 869.22 150.27
  C 890.05 160.57 896.26 186.90 896.56 208.03
  Q 896.56 208.50 897.03 208.50
  L 906.22 208.50
  Q 906.71 208.50 906.72 208.01
  Q 907.47 185.58 899.98 164.49
  Q 895.09 150.73 890.04 137.04
  Q 886.78 128.18 886.02 123.13
  C 882.37 98.70 896.76 74.45 912.52 57.19
  Q 912.92 56.74 913.33 57.18
  C 929.32 74.21 943.10 98.37 939.84 122.63
  Q 939.05 128.55 934.17 141.73
  Q 930.07 152.81 926.14 163.93
  Q 918.54 185.44 919.04 207.54
  Q 919.06 208.50 920.01 208.50
  L 928.27 208.50
  Q 929.29 208.50 929.40 207.48
  Z"
/>
<path fill="#1f1c7f" d="
  M 544.87 57.62
  L 544.64 387.35
  Q 544.64 387.88 544.12 387.99
  L 535.20 390.01
  Q 443.01 409.66 348.99 416.61
  Q 326.50 418.28 303.99 419.47
  Q 294.36 419.98 284.75 420.63
  C 277.37 421.13 265.93 421.04 251.50 421.53
  C 240.23 421.92 226.38 421.34 217.83 421.17
  Q 193.75 420.68 171.75 418.76
  C 114.07 413.74 56.36 403.24 0.26 386.92
  L 0.26 58.39
  A 0.18 0.18 0.0 0 1 0.50 58.22
  C 82.23 85.67 169.84 100.75 256.25 97.71
  C 311.36 95.78 366.43 89.45 421.02 81.83
  Q 483.41 73.13 544.87 57.62
  Z
  M 233.49 295.50
  L 218.50 295.50
  Q 218.00 295.50 218.00 296.00
  L 218.00 311.99
  Q 218.00 312.48 218.49 312.48
  L 250.74 312.51
  Q 251.20 312.51 251.21 312.97
  C 251.28 322.24 245.55 329.57 237.38 333.77
  Q 236.61 334.17 236.99 334.96
  C 239.49 340.20 244.14 344.24 250.36 344.50
  A 0.92 0.92 0.0 0 1 251.24 345.31
  Q 252.58 356.52 260.32 364.65
  A 0.28 0.27 -44.3 0 0 260.71 364.65
  C 266.59 358.60 268.10 352.91 270.05 344.96
  Q 270.16 344.50 270.63 344.42
  C 271.34 344.31 271.96 344.58 272.62 344.46
  C 277.84 343.49 281.85 339.33 284.17 334.77
  A 0.71 0.70 26.7 0 0 283.85 333.82
  C 275.59 329.79 270.03 322.43 269.77 313.01
  Q 269.76 312.50 270.26 312.50
  L 302.47 312.49
  Q 302.93 312.49 302.93 312.03
  L 303.17 295.96
  Q 303.18 295.50 302.71 295.50
  L 287.52 295.50
  Q 287.05 295.50 287.05 295.03
  C 287.08 286.96 290.52 276.19 298.32 272.59
  C 303.50 270.19 310.65 271.03 314.52 275.52
  C 318.51 280.17 318.69 287.76 316.51 293.26
  Q 316.29 293.81 316.87 293.68
  C 334.94 289.64 345.07 275.61 340.63 257.28
  Q 337.57 244.63 325.12 237.73
  C 312.75 230.87 299.60 237.35 291.40 247.42
  C 281.00 260.18 276.95 278.39 277.07 294.93
  A 0.56 0.56 0.0 0 1 276.51 295.50
  L 267.01 295.50
  Q 266.52 295.50 266.54 295.01
  C 266.77 288.79 266.79 282.20 267.58 276.38
  C 270.13 257.47 277.79 239.49 284.30 221.67
  C 294.85 192.82 280.03 165.17 260.94 144.14
  Q 260.61 143.78 260.28 144.13
  C 243.84 161.07 230.23 186.19 233.67 210.35
  Q 234.31 214.86 236.71 221.46
  Q 241.59 234.88 246.55 248.27
  Q 254.92 270.87 254.43 295.03
  Q 254.43 295.50 253.96 295.50
  L 244.53 295.49
  A 0.52 0.52 0.0 0 1 244.01 294.97
  C 244.14 274.44 237.21 246.19 216.17 236.99
  C 197.82 228.96 180.51 245.54 179.55 262.91
  C 178.60 280.19 188.51 289.70 204.42 293.79
  A 0.19 0.19 0.0 0 0 204.65 293.54
  Q 201.32 285.23 205.44 277.34
  C 208.73 271.03 217.70 269.80 223.18 272.75
  C 230.47 276.66 233.96 286.79 234.02 294.97
  Q 234.02 295.50 233.49 295.50
  Z"
/>
<path fill="#000000" fill-opacity="0.161" d="
  M 1202.75 88.42
  Q 1233.75 95.67 1264.28 105.39
  A 1.45 1.45 0.0 0 1 1265.29 106.77
  L 1265.28 875.52
  Q 1265.28 876.60 1264.27 876.21
  Q 1180.52 844.44 1091.25 834.51
  C 1056.20 830.60 1020.76 828.99 985.49 829.40
  Q 937.01 829.96 895.25 834.69
  C 835.10 841.50 778.20 850.86 719.50 864.52
  Q 669.69 876.11 619.55 886.19
  Q 610.37 888.03 599.99 890.35
  C 538.05 904.20 474.94 914.98 412.25 919.47
  Q 395.48 920.67 370.99 921.24
  Q 340.75 921.94 310.50 921.11
  C 300.64 920.85 290.62 920.26 280.75 919.60
  C 206.94 914.63 134.52 900.83 63.75 879.37
  A 1.52 1.50 -82.0 0 1 62.68 877.93
  L 62.58 833.54
  Q 236.91 874.51 414.74 850.18
  Q 481.26 841.08 546.87 825.65
  Q 597.51 815.81 648.12 803.97
  Q 665.23 800.18 682.54 796.48
  Q 756.04 780.76 830.73 772.30
  C 882.81 766.41 934.21 765.62 987.49 768.54
  Q 1098.57 774.61 1202.21 813.82
  A 0.39 0.39 0.0 0 0 1202.74 813.45
  L 1202.74 476.00
  L 1202.74 361.78
  L 1202.75 88.42
  Z"
/>
<path fill="#f0eff0" d="
  M 234.02 294.97
  C 233.96 286.79 230.47 276.66 223.18 272.75
  C 217.70 269.80 208.73 271.03 205.44 277.34
  Q 201.32 285.23 204.65 293.54
  A 0.19 0.19 0.0 0 1 204.42 293.79
  C 188.51 289.70 178.60 280.19 179.55 262.91
  C 180.51 245.54 197.82 228.96 216.17 236.99
  C 237.21 246.19 244.14 274.44 244.01 294.97
  A 0.52 0.52 0.0 0 0 244.53 295.49
  L 253.96 295.50
  Q 254.43 295.50 254.43 295.03
  Q 254.92 270.87 246.55 248.27
  Q 241.59 234.88 236.71 221.46
  Q 234.31 214.86 233.67 210.35
  C 230.23 186.19 243.84 161.07 260.28 144.13
  Q 260.61 143.78 260.94 144.14
  C 280.03 165.17 294.85 192.82 284.30 221.67
  C 277.79 239.49 270.13 257.47 267.58 276.38
  C 266.79 282.20 266.77 288.79 266.54 295.01
  Q 266.52 295.50 267.01 295.50
  L 276.51 295.50
  A 0.56 0.56 0.0 0 0 277.07 294.93
  C 276.95 278.39 281.00 260.18 291.40 247.42
  C 299.60 237.35 312.75 230.87 325.12 237.73
  Q 337.57 244.63 340.63 257.28
  C 345.07 275.61 334.94 289.64 316.87 293.68
  Q 316.29 293.81 316.51 293.26
  C 318.69 287.76 318.51 280.17 314.52 275.52
  C 310.65 271.03 303.50 270.19 298.32 272.59
  C 290.52 276.19 287.08 286.96 287.05 295.03
  Q 287.05 295.50 287.52 295.50
  L 302.71 295.50
  Q 303.18 295.50 303.17 295.96
  L 302.93 312.03
  Q 302.93 312.49 302.47 312.49
  L 270.26 312.50
  Q 269.76 312.50 269.77 313.01
  C 270.03 322.43 275.59 329.79 283.85 333.82
  A 0.71 0.70 26.7 0 1 284.17 334.77
  C 281.85 339.33 277.84 343.49 272.62 344.46
  C 271.96 344.58 271.34 344.31 270.63 344.42
  Q 270.16 344.50 270.05 344.96
  C 268.10 352.91 266.59 358.60 260.71 364.65
  A 0.28 0.27 -44.3 0 1 260.32 364.65
  Q 252.58 356.52 251.24 345.31
  A 0.92 0.92 0.0 0 0 250.36 344.50
  C 244.14 344.24 239.49 340.20 236.99 334.96
  Q 236.61 334.17 237.38 333.77
  C 245.55 329.57 251.28 322.24 251.21 312.97
  Q 251.20 312.51 250.74 312.51
  L 218.49 312.48
  Q 218.00 312.48 218.00 311.99
  L 218.00 296.00
  Q 218.00 295.50 218.50 295.50
  L 233.49 295.50
  Q 234.02 295.50 234.02 294.97
  Z"
/>
<path fill="#e8e8f0" d="
  M 0.26 386.92
  C 56.36 403.24 114.07 413.74 171.75 418.76
  Q 193.75 420.68 217.83 421.17
  C 226.38 421.34 240.23 421.92 251.50 421.53
  C 265.93 421.04 277.37 421.13 284.75 420.63
  Q 294.36 419.98 303.99 419.47
  Q 326.50 418.28 348.99 416.61
  Q 443.01 409.66 535.20 390.01
  Q 535.07 390.20 535.08 390.42
  Q 535.08 390.64 535.30 390.60
  Q 535.43 390.57 535.56 390.55
  Q 535.89 390.48 535.89 390.81
  Q 535.86 444.81 535.90 498.80
  Q 535.90 498.87 535.85 498.83
  Q 535.74 498.76 535.59 498.74
  Q 535.17 498.68 535.34 499.07
  Q 535.39 499.21 535.49 499.39
  Q 410.63 526.39 282.99 531.77
  Q 272.56 532.21 262.13 532.40
  C 261.21 532.42 260.46 532.75 259.61 532.75
  Q 242.39 532.74 225.17 532.76
  C 223.52 532.76 221.55 532.42 219.50 532.39
  C 161.74 531.62 104.69 523.75 46.24 510.51
  Q 26.04 505.94 0.26 496.38
  L 0.26 386.92
  Z"
/>
<path fill="#1f1c7f" d="
  M 1202.74 476.00
  L 1202.74 813.45
  A 0.39 0.39 0.0 0 1 1202.21 813.82
  Q 1098.57 774.61 987.49 768.54
  C 934.21 765.62 882.81 766.41 830.73 772.30
  Q 756.04 780.76 682.54 796.48
  Q 665.23 800.18 648.12 803.97
  L 648.11 482.85
  Q 648.11 481.66 649.26 481.35
  Q 830.11 431.95 1017.49 444.71
  Q 1051.31 447.01 1094.11 453.19
  C 1133.87 458.93 1167.07 464.77 1202.74 476.00
  Z
  M 911.22 649.23
  L 901.75 649.23
  Q 901.25 649.23 901.25 648.72
  C 901.23 632.05 897.40 614.07 886.58 600.92
  C 881.06 594.22 871.16 587.50 862.02 588.56
  C 846.34 590.39 836.40 605.00 836.66 620.07
  C 836.91 634.67 847.20 644.35 861.25 647.36
  Q 861.81 647.48 861.63 646.94
  C 858.69 638.08 860.57 627.17 871.40 625.22
  C 884.74 622.82 891.16 637.66 891.16 648.79
  Q 891.16 649.22 890.73 649.22
  L 875.77 649.24
  A 0.49 0.49 0.0 0 0 875.28 649.73
  L 875.26 665.62
  A 0.61 0.61 0.0 0 0 875.87 666.23
  L 907.96 666.19
  A 0.66 0.66 0.0 0 1 908.62 666.91
  Q 907.35 681.27 894.49 687.47
  Q 893.72 687.84 894.12 688.59
  C 896.87 693.85 901.44 698.32 907.81 698.29
  Q 908.31 698.29 908.37 698.79
  Q 909.75 710.05 917.41 718.31
  A 0.39 0.39 0.0 0 0 917.98 718.32
  C 923.70 712.38 925.49 706.62 927.20 698.77
  Q 927.31 698.26 927.83 698.26
  C 934.05 698.21 938.84 693.78 941.40 688.43
  Q 941.62 687.96 941.18 687.70
  C 932.65 682.54 927.48 677.35 926.98 666.76
  Q 926.95 666.19 927.51 666.20
  L 959.76 666.24
  Q 960.25 666.24 960.25 665.74
  L 960.25 649.74
  Q 960.25 649.23 959.74 649.23
  L 944.77 649.24
  Q 944.34 649.24 944.34 648.80
  C 944.33 636.04 952.52 620.14 967.71 626.31
  C 975.54 629.50 976.22 640.01 973.82 646.92
  Q 973.63 647.44 974.18 647.33
  C 991.96 643.80 1002.33 629.05 997.86 610.98
  C 993.83 594.66 976.43 582.94 960.21 591.69
  C 940.39 602.38 934.33 628.10 934.16 648.78
  Q 934.16 649.22 933.72 649.22
  L 924.50 649.23
  Q 923.94 649.24 923.93 648.68
  Q 923.35 627.81 929.31 609.53
  Q 932.86 598.63 939.60 580.65
  Q 943.86 569.31 944.63 563.51
  C 947.98 538.61 934.16 515.80 918.22 497.97
  Q 917.75 497.44 917.28 497.96
  Q 910.69 505.08 904.95 513.43
  C 893.52 530.06 885.86 554.06 893.20 573.50
  Q 898.79 588.32 904.16 603.21
  C 909.63 618.43 911.61 632.80 911.67 648.78
  Q 911.68 649.23 911.22 649.23
  Z"
/>
<path fill="#1f1c7f" d="
  M 0.26 496.38
  Q 26.04 505.94 46.24 510.51
  C 104.69 523.75 161.74 531.62 219.50 532.39
  C 221.55 532.42 223.52 532.76 225.17 532.76
  Q 242.39 532.74 259.61 532.75
  C 260.46 532.75 261.21 532.42 262.13 532.40
  Q 272.56 532.21 282.99 531.77
  Q 410.63 526.39 535.49 499.39
  L 546.03 497.06
  A 0.69 0.69 0.0 0 1 546.87 497.73
  L 546.87 825.65
  Q 481.26 841.08 414.74 850.18
  Q 236.91 874.51 62.58 833.54
  Q 31.39 825.92 0.70 816.70
  Q 0.26 816.57 0.26 816.11
  L 0.26 496.38
  Z
  M 272.27 755.00
  L 303.75 755.00
  Q 304.25 755.00 304.25 754.50
  L 304.25 738.50
  Q 304.25 738.00 303.75 738.00
  L 288.79 738.00
  Q 288.41 738.00 288.41 737.62
  C 288.24 727.15 293.63 713.52 305.75 713.80
  C 318.05 714.08 321.39 725.76 317.78 735.61
  Q 317.60 736.09 318.10 735.99
  C 337.97 732.21 347.68 714.39 340.61 695.79
  C 336.15 684.08 321.82 673.60 308.97 678.21
  C 285.55 686.62 278.45 715.15 278.16 737.56
  Q 278.15 738.00 277.71 738.00
  L 268.25 738.00
  Q 267.67 738.00 267.71 737.42
  Q 268.00 732.12 268.25 727.01
  C 269.32 704.81 277.83 685.26 285.28 664.73
  Q 288.09 656.98 288.70 652.03
  C 291.67 628.04 278.39 603.41 262.07 586.62
  Q 261.71 586.25 261.35 586.62
  C 245.28 603.43 231.73 627.90 234.84 652.01
  Q 235.53 657.39 239.31 667.70
  C 245.71 685.19 252.65 702.94 254.95 720.30
  Q 255.55 724.87 255.69 737.52
  Q 255.70 738.00 255.22 738.00
  L 245.78 738.00
  Q 245.30 738.00 245.30 737.52
  C 245.17 716.91 238.99 690.31 218.75 680.10
  C 211.99 676.69 205.14 676.12 198.42 679.39
  Q 181.89 687.44 180.81 706.25
  C 179.90 722.36 190.38 732.85 205.41 736.07
  A 0.35 0.35 0.0 0 0 205.81 735.59
  C 201.44 725.26 206.58 712.51 219.57 713.86
  C 230.50 715.01 235.22 728.03 235.24 737.49
  Q 235.24 738.00 234.74 738.00
  L 219.82 738.00
  Q 219.26 738.00 219.26 738.56
  L 219.24 754.49
  A 0.51 0.50 90.0 0 0 219.74 755.00
  L 251.98 755.00
  A 0.64 0.63 -87.5 0 1 252.61 755.70
  Q 251.32 770.06 238.42 776.16
  A 0.73 0.72 64.5 0 0 238.08 777.14
  C 240.68 782.50 245.45 786.83 251.69 787.06
  Q 252.17 787.08 252.27 787.54
  C 254.14 795.38 255.72 801.06 261.49 806.99
  Q 261.75 807.26 262.01 806.99
  Q 269.80 798.84 271.06 787.56
  Q 271.09 787.25 271.40 787.21
  C 278.31 786.46 282.22 783.10 285.39 777.30
  A 0.88 0.87 -63.4 0 0 284.99 776.09
  Q 272.55 770.25 270.97 756.46
  Q 270.80 755.00 272.27 755.00
  Z"
/>
<path fill="#f0eff0" d="
  M 911.67 648.78
  C 911.61 632.80 909.63 618.43 904.16 603.21
  Q 898.79 588.32 893.20 573.50
  C 885.86 554.06 893.52 530.06 904.95 513.43
  Q 910.69 505.08 917.28 497.96
  Q 917.75 497.44 918.22 497.97
  C 934.16 515.80 947.98 538.61 944.63 563.51
  Q 943.86 569.31 939.60 580.65
  Q 932.86 598.63 929.31 609.53
  Q 923.35 627.81 923.93 648.68
  Q 923.94 649.24 924.50 649.23
  L 933.72 649.22
  Q 934.16 649.22 934.16 648.78
  C 934.33 628.10 940.39 602.38 960.21 591.69
  C 976.43 582.94 993.83 594.66 997.86 610.98
  C 1002.33 629.05 991.96 643.80 974.18 647.33
  Q 973.63 647.44 973.82 646.92
  C 976.22 640.01 975.54 629.50 967.71 626.31
  C 952.52 620.14 944.33 636.04 944.34 648.80
  Q 944.34 649.24 944.77 649.24
  L 959.74 649.23
  Q 960.25 649.23 960.25 649.74
  L 960.25 665.74
  Q 960.25 666.24 959.76 666.24
  L 927.51 666.20
  Q 926.95 666.19 926.98 666.76
  C 927.48 677.35 932.65 682.54 941.18 687.70
  Q 941.62 687.96 941.40 688.43
  C 938.84 693.78 934.05 698.21 927.83 698.26
  Q 927.31 698.26 927.20 698.77
  C 925.49 706.62 923.70 712.38 917.98 718.32
  A 0.39 0.39 0.0 0 1 917.41 718.31
  Q 909.75 710.05 908.37 698.79
  Q 908.31 698.29 907.81 698.29
  C 901.44 698.32 896.87 693.85 894.12 688.59
  Q 893.72 687.84 894.49 687.47
  Q 907.35 681.27 908.62 666.91
  A 0.66 0.66 0.0 0 0 907.96 666.19
  L 875.87 666.23
  A 0.61 0.61 0.0 0 1 875.26 665.62
  L 875.28 649.73
  A 0.49 0.49 0.0 0 1 875.77 649.24
  L 890.73 649.22
  Q 891.16 649.22 891.16 648.79
  C 891.16 637.66 884.74 622.82 871.40 625.22
  C 860.57 627.17 858.69 638.08 861.63 646.94
  Q 861.81 647.48 861.25 647.36
  C 847.20 644.35 836.91 634.67 836.66 620.07
  C 836.40 605.00 846.34 590.39 862.02 588.56
  C 871.16 587.50 881.06 594.22 886.58 600.92
  C 897.40 614.07 901.23 632.05 901.25 648.72
  Q 901.25 649.23 901.75 649.23
  L 911.22 649.23
  Q 911.68 649.23 911.67 648.78
  Z"
/>
<path fill="#f0eff0" d="
  M 272.27 755.00
  Q 270.80 755.00 270.97 756.46
  Q 272.55 770.25 284.99 776.09
  A 0.88 0.87 -63.4 0 1 285.39 777.30
  C 282.22 783.10 278.31 786.46 271.40 787.21
  Q 271.09 787.25 271.06 787.56
  Q 269.80 798.84 262.01 806.99
  Q 261.75 807.26 261.49 806.99
  C 255.72 801.06 254.14 795.38 252.27 787.54
  Q 252.17 787.08 251.69 787.06
  C 245.45 786.83 240.68 782.50 238.08 777.14
  A 0.73 0.72 64.5 0 1 238.42 776.16
  Q 251.32 770.06 252.61 755.70
  A 0.64 0.63 -87.5 0 0 251.98 755.00
  L 219.74 755.00
  A 0.51 0.50 90.0 0 1 219.24 754.49
  L 219.26 738.56
  Q 219.26 738.00 219.82 738.00
  L 234.74 738.00
  Q 235.24 738.00 235.24 737.49
  C 235.22 728.03 230.50 715.01 219.57 713.86
  C 206.58 712.51 201.44 725.26 205.81 735.59
  A 0.35 0.35 0.0 0 1 205.41 736.07
  C 190.38 732.85 179.90 722.36 180.81 706.25
  Q 181.89 687.44 198.42 679.39
  C 205.14 676.12 211.99 676.69 218.75 680.10
  C 238.99 690.31 245.17 716.91 245.30 737.52
  Q 245.30 738.00 245.78 738.00
  L 255.22 738.00
  Q 255.70 738.00 255.69 737.52
  Q 255.55 724.87 254.95 720.30
  C 252.65 702.94 245.71 685.19 239.31 667.70
  Q 235.53 657.39 234.84 652.01
  C 231.73 627.90 245.28 603.43 261.35 586.62
  Q 261.71 586.25 262.07 586.62
  C 278.39 603.41 291.67 628.04 288.70 652.03
  Q 288.09 656.98 285.28 664.73
  C 277.83 685.26 269.32 704.81 268.25 727.01
  Q 268.00 732.12 267.71 737.42
  Q 267.67 738.00 268.25 738.00
  L 277.71 738.00
  Q 278.15 738.00 278.16 737.56
  C 278.45 715.15 285.55 686.62 308.97 678.21
  C 321.82 673.60 336.15 684.08 340.61 695.79
  C 347.68 714.39 337.97 732.21 318.10 735.99
  Q 317.60 736.09 317.78 735.61
  C 321.39 725.76 318.05 714.08 305.75 713.80
  C 293.63 713.52 288.24 727.15 288.41 737.62
  Q 288.41 738.00 288.79 738.00
  L 303.75 738.00
  Q 304.25 738.00 304.25 738.50
  L 304.25 754.50
  Q 304.25 755.00 303.75 755.00
  L 272.27 755.00
  Z"
/>
</svg>
